<?xml version="1.0" encoding="iso-8859-1"?>
<!-- Generator: Adobe Illustrator 19.0.0, SVG Export Plug-In . SVG Version: 6.00 Build 0)  -->
<svg version="1.1" id="Capa_1" xmlns="http://www.w3.org/2000/svg" xmlns:xlink="http://www.w3.org/1999/xlink" x="0px" y="0px"
	 viewBox="0 0 511.999 511.999" style="enable-background:new 0 0 511.999 511.999;" xml:space="preserve">
<path style="fill:#5EC62E;" d="M498.778,252.32h-38.054H51.822H13.751c-3.904,0-6.778,3.697-5.773,7.469
	c12.715,47.748,39.07,91.092,76.343,124.684c142.28,128.227,370.891,60.621,420.244-124.667
	C505.571,256.025,502.69,252.32,498.778,252.32z"/>
<path style="fill:#4EAA18;" d="M104.322,384.473c-37.274-33.591-63.629-76.935-76.343-124.684c-1.004-3.773,1.869-7.469,5.773-7.469
	H13.751c-3.904,0-6.778,3.697-5.773,7.469c12.715,47.748,39.07,91.092,76.343,124.684c49.44,44.557,114.336,68.428,181.952,65.812
	C206.256,447.964,149.081,424.811,104.322,384.473z"/>
<path style="fill:#FF5050;" d="M51.82,252.32c25.605,89.8,108.044,153.883,204.451,153.883S435.118,342.12,460.722,252.32
	L51.82,252.32L51.82,252.32z"/>
<path style="fill:#F24040;" d="M71.821,252.32H51.82c26.518,93.002,113.94,158.288,214.452,153.644
	C174.203,401.707,96.535,338.998,71.821,252.32z"/>
<path style="fill:#5EC62E;" d="M393.011,63.632L366.103,90.54L76.966,379.678l-26.92,26.92c-2.761,2.76-2.178,7.407,1.199,9.364
	c42.754,24.773,92.038,36.786,142.147,34.182c192.785-10.015,304.294-220.832,209.004-385.31
	C400.436,61.449,395.778,60.865,393.011,63.632z"/>
<path style="fill:#4EAA18;" d="M64.517,423.129l19.277-19.277L409.555,78.09c-2.255-4.481-4.636-8.904-7.157-13.256
	c-1.961-3.385-6.618-3.969-9.385-1.202L366.104,90.54L76.966,379.678l-26.92,26.92c-2.76,2.76-2.178,7.407,1.199,9.364
	C55.602,418.487,60.03,420.871,64.517,423.129z"/>
<path style="fill:#FF5050;" d="M76.964,379.679c81.603,45.393,185.21,32.413,253.38-35.758
	c68.17-68.17,81.151-171.778,35.758-253.38L76.964,379.679z"/>
<path style="fill:#F24040;" d="M76.964,379.679c6.811,3.789,13.779,7.161,20.863,10.138l278.415-278.414
	c-2.977-7.084-6.35-14.052-10.138-20.863L76.964,379.679z"/>
<path d="M120.556,302.376c0.983,0,1.982-0.194,2.944-0.605l21.913-9.367c3.809-1.628,5.576-6.036,3.948-9.845
	c-1.629-3.808-6.032-5.576-9.845-3.948l-21.913,9.367c-3.809,1.628-5.576,6.036-3.948,9.845
	C114.873,300.669,117.643,302.376,120.556,302.376z"/>
<path d="M155.71,368.423c2.974,0,5.788-1.781,6.963-4.711l8.869-22.119c1.542-3.844-0.325-8.211-4.17-9.752
	c-3.842-1.542-8.211,0.324-9.752,4.17l-8.869,22.119C146.772,363.06,150.419,368.423,155.71,368.423z"/>
<path d="M204.357,358.844c0.577,4.098,4.364,6.959,8.472,6.382c4.103-0.577,6.959-4.37,6.382-8.472l-3.321-23.599
	c-0.577-4.104-4.371-6.959-8.472-6.382c-4.103,0.577-6.959,4.37-6.382,8.472L204.357,358.844z"/>
<path d="M251.38,344.255c1.867,3.694,6.376,5.181,10.077,3.312c3.696-1.868,5.18-6.38,3.312-10.077l-10.747-21.271
	c-1.868-3.697-6.378-5.18-10.077-3.312c-3.696,1.868-5.18,6.38-3.312,10.077L251.38,344.255z"/>
<path d="M294.154,318.422c2.929,2.929,7.677,2.93,10.607,0.002c2.929-2.929,2.93-7.678,0.002-10.607l-16.849-16.855
	c-2.929-2.929-7.677-2.931-10.607-0.002c-2.929,2.929-2.93,7.678-0.002,10.607L294.154,318.422z"/>
<path d="M327.939,185.198l22.118-8.87c3.844-1.542,5.711-5.908,4.169-9.753c-1.543-3.845-5.912-5.712-9.753-4.169l-22.118,8.87
	c-3.844,1.542-5.711,5.908-4.169,9.753C319.729,184.877,324.099,186.739,327.939,185.198z"/>
<path d="M319.498,229.544c25.202,3.548,23.83,3.396,24.654,3.396c3.678,0,6.89-2.708,7.417-6.455
	c0.577-4.102-2.279-7.896-6.381-8.473l-23.599-3.322c-4.106-0.571-7.896,2.279-8.473,6.381
	C312.539,225.172,315.397,228.967,319.498,229.544z"/>
<path d="M302.563,267.677l21.271,10.747c3.704,1.87,8.211,0.38,10.077-3.312c1.868-3.697,0.385-8.209-3.312-10.077l-21.271-10.747
	c-3.697-1.867-8.208-0.386-10.077,3.312C297.383,261.297,298.866,265.808,302.563,267.677z"/>
<path d="M498.506,244.628c-6.782,0-53.764,0-59.384,0c2.003-10.139,3.43-20.424,4.231-30.813c0.318-4.13-2.771-7.736-6.9-8.055
	c-4.145-0.333-7.737,2.771-8.055,6.9C414.313,395.252,214.42,500.093,56.496,410.294l21.566-21.567
	c31.327,16.349,66.555,24.894,101.921,24.894c164.071,0,271.602-175.316,195.091-321.906l21.565-21.565
	c18.765,33.021,29.849,70.501,32.075,108.526c0.242,4.136,3.791,7.31,7.926,7.049c4.135-0.242,7.291-3.791,7.049-7.926
	c-2.402-41.025-14.531-81.454-35.074-116.915c-4.44-7.658-14.933-8.993-21.18-2.744c-7.332,7.332-172.437,172.436-186.49,186.489
	c-7.248,0-179.217,0-187.465,0c-8.856,0-15.291,8.383-13.022,16.9c11.727,44.041,34.722,84.301,66.681,116.906l-22.668,22.669
	c-6.256,6.256-4.894,16.736,2.742,21.158c51.939,30.096,112.003,41.317,170.72,32.776c59.712,8.653,118.76-3.462,168.271-31.495
	c3.604-2.041,4.872-6.617,2.831-10.222c-2.04-3.604-6.617-4.872-10.222-2.831c-33.66,19.059-71.492,30.016-110.132,31.989
	c34.205-12.157,64.214-30.846,89.56-54.043c51.473-26.951,90.473-73.624,107.792-128.807h30.485
	c-14.016,50.964-44.38,97.826-89.348,132.138c-3.293,2.513-3.926,7.22-1.413,10.513c2.513,3.292,7.22,3.926,10.513,1.413
	c5.833-4.451,11.454-9.107,16.704-13.84c38.213-34.44,65.381-78.808,78.566-128.308C513.812,253.02,507.371,244.628,498.506,244.628
	z M363.922,102.866c62.355,126.665-19.383,275.176-156.517,293.899c-40.293,5.499-81.874-1.303-118.196-19.184
	C98.479,368.311,359.485,107.303,363.922,102.866z M185.944,259.629l-76.981,76.981c-21.299-21.85-37.449-48.188-47.22-76.981
	H185.944z M15.484,259.629h30.487c10.302,32.849,28.276,62.898,52.386,87.587l-20.617,20.617
	C48.123,337.58,26.686,300.349,15.484,259.629z M400.176,339.421c15.623-23.51,28.028-50.666,35.553-79.792h14.526
	C439.986,289.848,422.698,317.174,400.176,339.421z"/>
<g>
</g>
<g>
</g>
<g>
</g>
<g>
</g>
<g>
</g>
<g>
</g>
<g>
</g>
<g>
</g>
<g>
</g>
<g>
</g>
<g>
</g>
<g>
</g>
<g>
</g>
<g>
</g>
<g>
</g>
</svg>
